sfk_cyclingleg_states
version=1
nRows=9
nColumns=53
inDegrees=yes

# SIMM Motion File Header:
name sfk_cyclingleg_states
datacolumns 53
datarows 9
otherdata 1
range 0.41354569 0.41560249
endheader
time	/jointset/bb/crank_angle/value	/jointset/bb/crank_angle/speed	/jointset/spindle/pedal_angle_r/value	/jointset/spindle/pedal_angle_r/speed	/jointset/ground_pelvis/pelvis_tilt/value	/jointset/ground_pelvis/pelvis_tilt/speed	/jointset/ground_pelvis/pelvis_list/value	/jointset/ground_pelvis/pelvis_list/speed	/jointset/ground_pelvis/pelvis_rotation/value	/jointset/ground_pelvis/pelvis_rotation/speed	/jointset/ground_pelvis/pelvis_tx/value	/jointset/ground_pelvis/pelvis_tx/speed	/jointset/ground_pelvis/pelvis_ty/value	/jointset/ground_pelvis/pelvis_ty/speed	/jointset/ground_pelvis/pelvis_tz/value	/jointset/ground_pelvis/pelvis_tz/speed	/jointset/hip_r/hip_angle_r/value	/jointset/hip_r/hip_angle_r/speed	/jointset/hip_r/hip_adduction_r/value	/jointset/hip_r/hip_adduction_r/speed	/jointset/hip_r/hip_rotation_r/value	/jointset/hip_r/hip_rotation_r/speed	/jointset/knee_r/knee_angle_r/value	/jointset/knee_r/knee_angle_r/speed	/jointset/knee_r/tib_tx_r/value	/jointset/knee_r/tib_tx_r/speed	/jointset/knee_r/tib_ty_r/value	/jointset/knee_r/tib_ty_r/speed	/jointset/tib_pat_r/pat_angle_r/value	/jointset/tib_pat_r/pat_angle_r/speed	/jointset/tib_pat_r/pat_tx_r/value	/jointset/tib_pat_r/pat_tx_r/speed	/jointset/tib_pat_r/pat_ty_r/value	/jointset/tib_pat_r/pat_ty_r/speed	/jointset/ankle_r/ankle_angle_r/value	/jointset/ankle_r/ankle_angle_r/speed	/jointset/subtalar_r/subtalar_angle_r/value	/jointset/subtalar_r/subtalar_angle_r/speed	/jointset/mtp_r/mtp_angle_r/value	/jointset/mtp_r/mtp_angle_r/speed	/forceset/bifemlh_r/activation	/forceset/bifemlh_r/fiber_length	/forceset/bifemsh_r/activation	/forceset/bifemsh_r/fiber_length	/forceset/glut_max2_r/activation	/forceset/glut_max2_r/fiber_length	/forceset/vas_int_r/activation	/forceset/vas_int_r/fiber_length	/forceset/med_gas_r/activation	/forceset/med_gas_r/fiber_length	/forceset/tib_ant_r/activation	/forceset/tib_ant_r/fiber_length
      0.41354569	   -208.69413960	   -480.13863232	    200.72476728	    285.38814126	     -0.00000000	     -0.00000000	      0.00000000	      0.00000000	      0.00000000	      0.00000000	     -0.00000000	     -0.00000000	      0.00000000	     -0.00000000	     -0.00000000	     -0.00000000	     38.45941479	     58.54178287	      4.38007686	     -0.35922848	      0.14065396	    -19.19318048	    -67.67685877	   -247.77771096	      0.00513145	      0.00396128	     -0.47838077	     -0.08010995	     17.50379137	      2.06505469	      0.04047573	     -0.07765508	     -0.02266014	      0.00746334	     21.68493249	     -4.87490407	      0.00000000	      0.00000000	      0.00000000	      0.00000000	     -0.02780189	      0.11099784	     -0.02780189	      0.16216759	     -0.02780189	      0.12892748	     -0.02780189	      0.13454258	     -0.02780189	      0.14318955	     -0.02780189	      0.11684840
      0.41370241	   -208.76938943	   -480.13863232	    200.76949730	    285.42015740	     -0.00000000	     -0.00000000	      0.00000000	      0.00000000	      0.00000000	      0.00000000	     -0.00000000	     -0.00000000	      0.00000000	     -0.00000000	     -0.00000000	     -0.00000000	     38.46859975	     58.66924388	      4.38002038	     -0.36151230	      0.13764527	    -19.20120978	    -67.71570332	   -247.92484305	      0.00513206	      0.00389956	     -0.47839333	     -0.08017644	     17.50411420	      2.05471664	      0.04046355	     -0.07772480	     -0.02265897	      0.00745211	     21.68417262	     -4.82189601	      0.00000000	      0.00000000	      0.00000000	      0.00000000	     -0.02782207	      0.11098706	     -0.02782207	      0.16214700	     -0.02782207	      0.12893423	     -0.02782207	      0.13456855	     -0.02782207	      0.14317274	     -0.02782207	      0.11684921
      0.41419043	   -209.00370515	   -480.13863232	    200.90881195	    285.52255298	     -0.00000000	     -0.00000000	      0.00000000	      0.00000000	      0.00000000	      0.00000000	     -0.00000000	     -0.00000000	      0.00000000	     -0.00000000	     -0.00000000	     -0.00000000	     38.49732794	     59.06488316	      4.37984222	     -0.36864199	      0.12826870	    -19.22600466	    -67.83680596	   -248.37953583	      0.00513392	      0.00370663	     -0.47843251	     -0.08038238	     17.50510910	      2.02260211	      0.04042557	     -0.07794124	     -0.02265534	      0.00741636	     21.68185982	     -4.65633325	      0.00000000	      0.00000000	      0.00000000	      0.00000000	     -0.02788490	      0.11095363	     -0.02788490	      0.16208284	     -0.02788490	      0.12895534	     -0.02788490	      0.13465016	     -0.02788490	      0.14311543	     -0.02788490	      0.11685171
      0.41441294	   -209.11053909	   -480.13863232	    200.97234789	    285.57059183	     -0.00000000	     -0.00000000	      0.00000000	      0.00000000	      0.00000000	      0.00000000	     -0.00000000	     -0.00000000	      0.00000000	     -0.00000000	     -0.00000000	     -0.00000000	     38.51049027	     59.24464536	      4.37975983	     -0.37190176	      0.12398954	    -19.23720653	    -67.89209491	   -248.58512090	      0.00513474	      0.00361827	     -0.47845041	     -0.08047572	     17.50555751	      2.00799958	      0.04040821	     -0.07803958	     -0.02265370	      0.00739968	     21.68083218	     -4.58059554	      0.00000000	      0.00000000	      0.00000000	      0.00000000	     -0.02791355	      0.11093846	     -0.02791355	      0.16205358	     -0.02791355	      0.12896501	     -0.02791355	      0.13468778	     -0.02791355	      0.14310772	     -0.02791355	      0.11685283
      0.41465187	   -209.22525944	   -480.13863232	    201.04058601	    285.62311612	     -0.00000000	     -0.00000000	      0.00000000	      0.00000000	      0.00000000	      0.00000000	     -0.00000000	     -0.00000000	      0.00000000	     -0.00000000	     -0.00000000	     -0.00000000	     38.52466871	     59.43724437	      4.37967055	     -0.37540844	      0.11939173	    -19.24916409	    -67.95151603	   -248.80468274	      0.00513559	      0.00352313	     -0.47846965	     -0.08057557	     17.50603542	      1.99234786	      0.04038956	     -0.07814496	     -0.02265193	      0.00738150	     21.67974747	     -4.49909372	      0.00000000	      0.00000000	      0.00000000	      0.00000000	     -0.02794431	      0.11092221	     -0.02794431	      0.16202214	     -0.02794431	      0.12897544	     -0.02794431	      0.13472800	     -0.02794431	      0.14308904	     -0.02794431	      0.11685401
      0.41532203	   -209.54702770	   -480.13863232	    201.23204901	    285.77560043	     -0.00000000	     -0.00000000	      0.00000000	      0.00000000	      0.00000000	      0.00000000	     -0.00000000	     -0.00000000	      0.00000000	     -0.00000000	     -0.00000000	     -0.00000000	     38.56468140	     59.97507498	      4.37941566	     -0.38527812	      0.10648063	    -19.28231360	    -68.11845891	   -249.41391904	      0.00513786	      0.00325481	     -0.47852374	     -0.08085349	     17.50735594	      1.94861351	      0.04033709	     -0.07843923	     -0.02264700	      0.00732903	     21.67680920	     -4.26955155	      0.00000000	      0.00000000	      0.00000000	      0.00000000	     -0.02803059	      0.11087689	     -0.02803059	      0.16193390	     -0.02803059	      0.12900488	     -0.02803059	      0.13484108	     -0.02803059	      0.14295471	     -0.02803059	      0.11685726
      0.41538904	   -209.57920452	   -480.13863232	    201.25120099	    285.79126577	     -0.00000000	     -0.00000000	      0.00000000	      0.00000000	      0.00000000	      0.00000000	     -0.00000000	     -0.00000000	      0.00000000	     -0.00000000	     -0.00000000	     -0.00000000	     38.56870247	     60.02866714	      4.37938981	     -0.38626783	      0.10518830	    -19.28559731	    -68.13517558	   -249.47431060	      0.00513808	      0.00322786	     -0.47852916	     -0.08088111	     17.50748638	      1.94425397	      0.04033183	     -0.07846856	     -0.02264651	      0.00732366	     21.67652385	     -4.24652148	      0.00000000	      0.00000000	      0.00000000	      0.00000000	     -0.02803922	      0.11087238	     -0.02803922	      0.16192507	     -0.02803922	      0.12900784	     -0.02803922	      0.13485223	     -0.02803922	      0.14298981	     -0.02803922	      0.11685757
      0.41545606	   -209.61138135	   -480.13863232	    201.27035401	    285.80700665	     -0.00000000	     -0.00000000	      0.00000000	      0.00000000	      0.00000000	      0.00000000	     -0.00000000	     -0.00000000	      0.00000000	     -0.00000000	     -0.00000000	     -0.00000000	     38.57272713	     60.08222481	      4.37936389	     -0.38725803	      0.10389576	    -19.28887539	    -68.15189630	   -249.53460578	      0.00513829	      0.00320089	     -0.47853458	     -0.08090870	     17.50761653	      1.93989703	      0.04032657	     -0.07849786	     -0.02264602	      0.00731827	     21.67624004	     -4.22347775	      0.00000000	      0.00000000	      0.00000000	      0.00000000	     -0.02804785	      0.11086787	     -0.02804785	      0.16191624	     -0.02804785	      0.12901081	     -0.02804785	      0.13486343	     -0.02804785	      0.14299443	     -0.02804785	      0.11685789
      0.41560249	   -209.68169010	   -480.13863232	    201.31220849	    285.84166415	     -0.00000000	     -0.00000000	      0.00000000	      0.00000000	      0.00000000	      0.00000000	     -0.00000000	     -0.00000000	      0.00000000	     -0.00000000	     -0.00000000	     -0.00000000	     38.58153379	     60.19913254	      4.37930702	     -0.38942340	      0.10107068	    -19.29601868	    -68.18844635	   -249.66602034	      0.00513876	      0.00314188	     -0.47854643	     -0.08096888	     17.50789990	      1.93038591	      0.04031507	     -0.07856183	     -0.02264495	      0.00730641	     21.67562527	     -4.17307807	      0.00000000	      0.00000000	      0.00000000	      0.00000000	     -0.02806670	      0.11085804	     -0.02806670	      0.16189694	     -0.02806670	      0.12901729	     -0.02806670	      0.13488801	     -0.02806670	      0.14299427	     -0.02806670	      0.11685858
